<svg xmlns="http://www.w3.org/2000/svg" viewBox="0 0 32 32">
  <rect width="32" height="32" rx="6" fill="#0c0a09"/>
  <path d="M16 4c-1 3-4 5-4 9a4 4 0 0 0 8 0c0-4-3-6-4-9z" fill="#f59e0b"/>
  <path d="M16 8c-.5 1.5-2 2.5-2 4.5a2 2 0 0 0 4 0c0-2-1.5-3-2-4.5z" fill="#fbbf24"/>
  <rect x="8" y="20" width="16" height="2" rx="1" fill="#78716c"/>
  <rect x="10" y="23" width="1.5" height="5" rx="0.5" fill="#78716c"/>
  <rect x="15.25" y="23" width="1.5" height="5" rx="0.5" fill="#78716c"/>
  <rect x="20.5" y="23" width="1.5" height="5" rx="0.5" fill="#78716c"/>
</svg>
